<svg xmlns="http://www.w3.org/2000/svg" viewBox="0 0 1200 80" width="100%" height="80">
<defs>
  <style>

    @keyframes move0 {
      0% { transform: translateX(0); }
      100% { transform: translateX(-1200px); }
    }
    .wave0 {
      animation: move0 30s linear infinite;
    }

    @keyframes move1 {
      0% { transform: translateX(-1200px); }
      100% { transform: translateX(0px); }
    }
    .wave1 {
      animation: move1 38s linear infinite;
    }

    @keyframes move2 {
      0% { transform: translateX(0); }
      100% { transform: translateX(-1200px); }
    }
    .wave2 {
      animation: move2 46s linear infinite;
    }

    @keyframes move3 {
      0% { transform: translateX(-1200px); }
      100% { transform: translateX(0px); }
    }
    .wave3 {
      animation: move3 54s linear infinite;
    }

    @keyframes move4 {
      0% { transform: translateX(0); }
      100% { transform: translateX(-1200px); }
    }
    .wave4 {
      animation: move4 62s linear infinite;
    }

    @keyframes move5 {
      0% { transform: translateX(-1200px); }
      100% { transform: translateX(0px); }
    }
    .wave5 {
      animation: move5 70s linear infinite;
    }

    @keyframes move6 {
      0% { transform: translateX(0); }
      100% { transform: translateX(-1200px); }
    }
    .wave6 {
      animation: move6 78s linear infinite;
    }

    @keyframes move7 {
      0% { transform: translateX(-1200px); }
      100% { transform: translateX(0px); }
    }
    .wave7 {
      animation: move7 86s linear infinite;
    }

    @keyframes move8 {
      0% { transform: translateX(0); }
      100% { transform: translateX(-1200px); }
    }
    .wave8 {
      animation: move8 94s linear infinite;
    }

    @keyframes move9 {
      0% { transform: translateX(-1200px); }
      100% { transform: translateX(0px); }
    }
    .wave9 {
      animation: move9 102s linear infinite;
    }

  </style>
  <linearGradient id="waveGrad" x1="0" y1="0" x2="0" y2="1">
    <stop offset="0%" stop-color="#00D4FF" stop-opacity="0.1"/>
    <stop offset="60%" stop-color="#9B59B6" stop-opacity="0.02"/>
    <stop offset="100%" stop-color="#050510" stop-opacity="0"/>
  </linearGradient>
</defs>
<g opacity="0.9">
  <path class="wave0" d="M 0 80 L 0 24.5 L 20 26.0 L 40 27.5 L 60 28.9 L 80 30.1 L 100 31.3 L 120 32.2 L 140 33.0 L 160 33.6 L 180 34.0 L 200 34.2 L 220 34.2 L 240 34.0 L 260 33.6 L 280 33.1 L 300 32.5 L 320 31.8 L 340 31.0 L 360 30.2 L 380 29.4 L 400 28.7 L 420 27.9 L 440 27.3 L 460 26.7 L 480 26.2 L 500 25.7 L 520 25.4 L 540 25.1 L 560 24.9 L 580 24.7 L 600 24.5 L 620 24.3 L 640 24.1 L 660 23.9 L 680 23.6 L 700 23.3 L 720 22.8 L 740 22.3 L 760 21.7 L 780 21.1 L 800 20.3 L 820 19.6 L 840 18.8 L 860 18.0 L 880 17.2 L 900 16.5 L 920 15.9 L 940 15.4 L 960 15.0 L 980 14.8 L 1000 14.8 L 1020 15.0 L 1040 15.4 L 1060 16.0 L 1080 16.8 L 1100 17.7 L 1120 18.9 L 1140 20.1 L 1160 21.5 L 1180 23.0 L 1200 24.5 L 1220 26.0 L 1240 27.5 L 1260 28.9 L 1280 30.1 L 1300 31.3 L 1320 32.2 L 1340 33.0 L 1360 33.6 L 1380 34.0 L 1400 34.2 L 1420 34.2 L 1440 34.0 L 1460 33.6 L 1480 33.1 L 1500 32.5 L 1520 31.8 L 1540 31.0 L 1560 30.2 L 1580 29.4 L 1600 28.7 L 1620 27.9 L 1640 27.3 L 1660 26.7 L 1680 26.2 L 1700 25.7 L 1720 25.4 L 1740 25.1 L 1760 24.9 L 1780 24.7 L 1800 24.5 L 1820 24.3 L 1840 24.1 L 1860 23.9 L 1880 23.6 L 1900 23.3 L 1920 22.8 L 1940 22.3 L 1960 21.7 L 1980 21.1 L 2000 20.3 L 2020 19.6 L 2040 18.8 L 2060 18.0 L 2080 17.2 L 2100 16.5 L 2120 15.9 L 2140 15.4 L 2160 15.0 L 2180 14.8 L 2200 14.8 L 2220 15.0 L 2240 15.4 L 2260 16.0 L 2280 16.8 L 2300 17.7 L 2320 18.9 L 2340 20.1 L 2360 21.5 L 2380 23.0 L 2400 24.5 L 2400 80 Z" fill="url(#waveGrad)" stroke="rgba(0, 212, 255, 0.05)" stroke-width="0.75" />
  <path class="wave1" d="M 0 80 L 0 26.0 L 20 29.1 L 40 32.1 L 60 34.7 L 80 36.7 L 100 38.0 L 120 38.6 L 140 38.5 L 160 37.7 L 180 36.2 L 200 34.2 L 220 31.9 L 240 29.4 L 260 26.8 L 280 24.4 L 300 22.2 L 320 20.4 L 340 19.1 L 360 18.2 L 380 17.8 L 400 17.8 L 420 18.1 L 440 18.8 L 460 19.6 L 480 20.6 L 500 21.6 L 520 22.6 L 540 23.5 L 560 24.4 L 580 25.2 L 600 26.0 L 620 26.8 L 640 27.6 L 660 28.5 L 680 29.4 L 700 30.4 L 720 31.4 L 740 32.4 L 760 33.2 L 780 33.9 L 800 34.2 L 820 34.2 L 840 33.8 L 860 32.9 L 880 31.6 L 900 29.8 L 920 27.6 L 940 25.2 L 960 22.6 L 980 20.1 L 1000 17.8 L 1020 15.8 L 1040 14.3 L 1060 13.5 L 1080 13.4 L 1100 14.0 L 1120 15.3 L 1140 17.3 L 1160 19.9 L 1180 22.9 L 1200 26.0 L 1220 29.1 L 1240 32.1 L 1260 34.7 L 1280 36.7 L 1300 38.0 L 1320 38.6 L 1340 38.5 L 1360 37.7 L 1380 36.2 L 1400 34.2 L 1420 31.9 L 1440 29.4 L 1460 26.8 L 1480 24.4 L 1500 22.2 L 1520 20.4 L 1540 19.1 L 1560 18.2 L 1580 17.8 L 1600 17.8 L 1620 18.1 L 1640 18.8 L 1660 19.6 L 1680 20.6 L 1700 21.6 L 1720 22.6 L 1740 23.5 L 1760 24.4 L 1780 25.2 L 1800 26.0 L 1820 26.8 L 1840 27.6 L 1860 28.5 L 1880 29.4 L 1900 30.4 L 1920 31.4 L 1940 32.4 L 1960 33.2 L 1980 33.9 L 2000 34.2 L 2020 34.2 L 2040 33.8 L 2060 32.9 L 2080 31.6 L 2100 29.8 L 2120 27.6 L 2140 25.2 L 2160 22.6 L 2180 20.1 L 2200 17.8 L 2220 15.8 L 2240 14.3 L 2260 13.5 L 2280 13.4 L 2300 14.0 L 2320 15.3 L 2340 17.3 L 2360 19.9 L 2380 22.9 L 2400 26.0 L 2400 80 Z" fill="url(#waveGrad)" stroke="rgba(0, 212, 255, 0.065)" stroke-width="0.75" />
  <path class="wave2" d="M 0 80 L 0 27.5 L 20 32.7 L 40 37.2 L 60 40.6 L 80 42.3 L 100 42.3 L 120 40.5 L 140 37.3 L 160 33.1 L 180 28.3 L 200 23.7 L 220 19.7 L 240 16.8 L 260 15.3 L 280 15.2 L 300 16.5 L 320 18.8 L 340 21.9 L 360 25.2 L 380 28.5 L 400 31.3 L 420 33.5 L 440 34.9 L 460 35.5 L 480 35.4 L 500 34.7 L 520 33.6 L 540 32.2 L 560 30.7 L 580 29.1 L 600 27.5 L 620 25.9 L 640 24.3 L 660 22.8 L 680 21.4 L 700 20.3 L 720 19.6 L 740 19.5 L 760 20.1 L 780 21.5 L 800 23.7 L 820 26.5 L 840 29.8 L 860 33.1 L 880 36.2 L 900 38.5 L 920 39.8 L 940 39.7 L 960 38.2 L 980 35.3 L 1000 31.3 L 1020 26.7 L 1040 21.9 L 1060 17.7 L 1080 14.5 L 1100 12.7 L 1120 12.7 L 1140 14.4 L 1160 17.8 L 1180 22.3 L 1200 27.5 L 1220 32.7 L 1240 37.2 L 1260 40.6 L 1280 42.3 L 1300 42.3 L 1320 40.5 L 1340 37.3 L 1360 33.1 L 1380 28.3 L 1400 23.7 L 1420 19.7 L 1440 16.8 L 1460 15.3 L 1480 15.2 L 1500 16.5 L 1520 18.8 L 1540 21.9 L 1560 25.2 L 1580 28.5 L 1600 31.3 L 1620 33.5 L 1640 34.9 L 1660 35.5 L 1680 35.4 L 1700 34.7 L 1720 33.6 L 1740 32.2 L 1760 30.7 L 1780 29.1 L 1800 27.5 L 1820 25.9 L 1840 24.3 L 1860 22.8 L 1880 21.4 L 1900 20.3 L 1920 19.6 L 1940 19.5 L 1960 20.1 L 1980 21.5 L 2000 23.7 L 2020 26.5 L 2040 29.8 L 2060 33.1 L 2080 36.2 L 2100 38.5 L 2120 39.8 L 2140 39.7 L 2160 38.2 L 2180 35.3 L 2200 31.3 L 2220 26.7 L 2240 21.9 L 2260 17.7 L 2280 14.5 L 2300 12.7 L 2320 12.7 L 2340 14.4 L 2360 17.8 L 2380 22.3 L 2400 27.5 L 2400 80 Z" fill="url(#waveGrad)" stroke="rgba(0, 212, 255, 0.08)" stroke-width="0.75" />
  <path class="wave3" d="M 0 80 L 0 29.0 L 20 30.8 L 40 32.6 L 60 34.4 L 80 36.1 L 100 37.8 L 120 39.3 L 140 40.7 L 160 42.0 L 180 43.2 L 200 44.2 L 220 45.0 L 240 45.6 L 260 46.1 L 280 46.4 L 300 46.5 L 320 46.4 L 340 46.1 L 360 45.6 L 380 45.0 L 400 44.2 L 420 43.2 L 440 42.0 L 460 40.7 L 480 39.3 L 500 37.8 L 520 36.1 L 540 34.4 L 560 32.6 L 580 30.8 L 600 29.0 L 620 27.2 L 640 25.4 L 660 23.6 L 680 21.9 L 700 20.2 L 720 18.7 L 740 17.3 L 760 16.0 L 780 14.8 L 800 13.8 L 820 13.0 L 840 12.4 L 860 11.9 L 880 11.6 L 900 11.5 L 920 11.6 L 940 11.9 L 960 12.4 L 980 13.0 L 1000 13.8 L 1020 14.8 L 1040 16.0 L 1060 17.3 L 1080 18.7 L 1100 20.2 L 1120 21.9 L 1140 23.6 L 1160 25.4 L 1180 27.2 L 1200 29.0 L 1220 30.8 L 1240 32.6 L 1260 34.4 L 1280 36.1 L 1300 37.7 L 1320 39.3 L 1340 40.7 L 1360 42.0 L 1380 43.2 L 1400 44.2 L 1420 45.0 L 1440 45.6 L 1460 46.1 L 1480 46.4 L 1500 46.5 L 1520 46.4 L 1540 46.1 L 1560 45.6 L 1580 45.0 L 1600 44.2 L 1620 43.2 L 1640 42.0 L 1660 40.7 L 1680 39.3 L 1700 37.8 L 1720 36.1 L 1740 34.4 L 1760 32.6 L 1780 30.8 L 1800 29.0 L 1820 27.2 L 1840 25.4 L 1860 23.6 L 1880 21.9 L 1900 20.3 L 1920 18.7 L 1940 17.3 L 1960 16.0 L 1980 14.8 L 2000 13.8 L 2020 13.0 L 2040 12.4 L 2060 11.9 L 2080 11.6 L 2100 11.5 L 2120 11.6 L 2140 11.9 L 2160 12.4 L 2180 13.0 L 2200 13.8 L 2220 14.8 L 2240 16.0 L 2260 17.3 L 2280 18.7 L 2300 20.2 L 2320 21.9 L 2340 23.6 L 2360 25.4 L 2380 27.2 L 2400 29.0 L 2400 80 Z" fill="url(#waveGrad)" stroke="rgba(0, 212, 255, 0.095)" stroke-width="0.75" />
  <path class="wave4" d="M 0 80 L 0 30.5 L 20 34.6 L 40 38.5 L 60 42.0 L 80 45.1 L 100 47.5 L 120 49.1 L 140 50.0 L 160 50.0 L 180 49.1 L 200 47.5 L 220 45.1 L 240 42.0 L 260 38.5 L 280 34.6 L 300 30.5 L 320 26.4 L 340 22.5 L 360 19.0 L 380 15.9 L 400 13.5 L 420 11.9 L 440 11.0 L 460 11.0 L 480 11.9 L 500 13.5 L 520 15.9 L 540 19.0 L 560 22.5 L 580 26.4 L 600 30.5 L 620 34.6 L 640 38.5 L 660 42.0 L 680 45.1 L 700 47.5 L 720 49.1 L 740 50.0 L 760 50.0 L 780 49.1 L 800 47.5 L 820 45.1 L 840 42.0 L 860 38.5 L 880 34.6 L 900 30.5 L 920 26.4 L 940 22.5 L 960 19.0 L 980 15.9 L 1000 13.5 L 1020 11.9 L 1040 11.0 L 1060 11.0 L 1080 11.9 L 1100 13.5 L 1120 15.9 L 1140 19.0 L 1160 22.5 L 1180 26.4 L 1200 30.5 L 1220 34.6 L 1240 38.5 L 1260 42.0 L 1280 45.1 L 1300 47.5 L 1320 49.1 L 1340 50.0 L 1360 50.0 L 1380 49.1 L 1400 47.5 L 1420 45.1 L 1440 42.0 L 1460 38.5 L 1480 34.6 L 1500 30.5 L 1520 26.4 L 1540 22.5 L 1560 19.0 L 1580 15.9 L 1600 13.5 L 1620 11.9 L 1640 11.0 L 1660 11.0 L 1680 11.9 L 1700 13.5 L 1720 15.9 L 1740 19.0 L 1760 22.5 L 1780 26.4 L 1800 30.5 L 1820 34.6 L 1840 38.5 L 1860 42.0 L 1880 45.1 L 1900 47.5 L 1920 49.1 L 1940 50.0 L 1960 50.0 L 1980 49.1 L 2000 47.5 L 2020 45.1 L 2040 42.0 L 2060 38.5 L 2080 34.6 L 2100 30.5 L 2120 26.4 L 2140 22.5 L 2160 19.0 L 2180 15.9 L 2200 13.5 L 2220 11.9 L 2240 11.0 L 2260 11.0 L 2280 11.9 L 2300 13.5 L 2320 15.9 L 2340 19.0 L 2360 22.5 L 2380 26.4 L 2400 30.5 L 2400 80 Z" fill="url(#waveGrad)" stroke="rgba(0, 212, 255, 0.11)" stroke-width="0.75" />
  <path class="wave5" d="M 0 80 L 0 32.0 L 20 38.7 L 40 44.8 L 60 49.6 L 80 52.6 L 100 53.7 L 120 52.6 L 140 49.6 L 160 44.8 L 180 38.7 L 200 32.0 L 220 25.3 L 240 19.2 L 260 14.4 L 280 11.4 L 300 10.3 L 320 11.4 L 340 14.4 L 360 19.2 L 380 25.3 L 400 32.0 L 420 38.7 L 440 44.8 L 460 49.6 L 480 52.6 L 500 53.7 L 520 52.6 L 540 49.6 L 560 44.8 L 580 38.7 L 600 32.0 L 620 25.3 L 640 19.2 L 660 14.4 L 680 11.4 L 700 10.3 L 720 11.4 L 740 14.4 L 760 19.2 L 780 25.3 L 800 32.0 L 820 38.7 L 840 44.8 L 860 49.6 L 880 52.6 L 900 53.7 L 920 52.6 L 940 49.6 L 960 44.8 L 980 38.7 L 1000 32.0 L 1020 25.3 L 1040 19.2 L 1060 14.4 L 1080 11.4 L 1100 10.3 L 1120 11.4 L 1140 14.4 L 1160 19.2 L 1180 25.3 L 1200 32.0 L 1220 38.7 L 1240 44.8 L 1260 49.6 L 1280 52.6 L 1300 53.7 L 1320 52.6 L 1340 49.6 L 1360 44.8 L 1380 38.7 L 1400 32.0 L 1420 25.3 L 1440 19.2 L 1460 14.4 L 1480 11.4 L 1500 10.3 L 1520 11.4 L 1540 14.4 L 1560 19.2 L 1580 25.3 L 1600 32.0 L 1620 38.7 L 1640 44.8 L 1660 49.6 L 1680 52.6 L 1700 53.7 L 1720 52.6 L 1740 49.6 L 1760 44.8 L 1780 38.7 L 1800 32.0 L 1820 25.3 L 1840 19.2 L 1860 14.4 L 1880 11.4 L 1900 10.3 L 1920 11.4 L 1940 14.4 L 1960 19.2 L 1980 25.3 L 2000 32.0 L 2020 38.7 L 2040 44.8 L 2060 49.6 L 2080 52.6 L 2100 53.7 L 2120 52.6 L 2140 49.6 L 2160 44.8 L 2180 38.7 L 2200 32.0 L 2220 25.3 L 2240 19.2 L 2260 14.4 L 2280 11.4 L 2300 10.3 L 2320 11.4 L 2340 14.4 L 2360 19.2 L 2380 25.3 L 2400 32.0 L 2400 80 Z" fill="url(#waveGrad)" stroke="rgba(0, 212, 255, 0.125)" stroke-width="0.75" />
  <path class="wave6" d="M 0 80 L 0 33.5 L 20 38.0 L 40 42.1 L 60 45.2 L 80 47.2 L 100 47.9 L 120 47.5 L 140 46.3 L 160 44.7 L 180 43.3 L 200 42.3 L 220 42.3 L 240 43.2 L 260 45.1 L 280 47.6 L 300 50.5 L 320 53.2 L 340 55.2 L 360 56.1 L 380 55.8 L 400 54.1 L 420 51.3 L 440 47.5 L 460 43.5 L 480 39.5 L 500 36.1 L 520 33.7 L 540 32.3 L 560 32.0 L 580 32.5 L 600 33.5 L 620 34.5 L 640 35.0 L 660 34.7 L 680 33.3 L 700 30.9 L 720 27.5 L 740 23.5 L 760 19.5 L 780 15.7 L 800 12.9 L 820 11.2 L 840 10.9 L 860 11.8 L 880 13.8 L 900 16.5 L 920 19.4 L 940 21.9 L 960 23.8 L 980 24.7 L 1000 24.7 L 1020 23.7 L 1040 22.3 L 1060 20.7 L 1080 19.5 L 1100 19.1 L 1120 19.8 L 1140 21.8 L 1160 24.9 L 1180 29.0 L 1200 33.5 L 1220 38.0 L 1240 42.1 L 1260 45.2 L 1280 47.2 L 1300 47.9 L 1320 47.5 L 1340 46.3 L 1360 44.7 L 1380 43.3 L 1400 42.3 L 1420 42.3 L 1440 43.2 L 1460 45.1 L 1480 47.6 L 1500 50.5 L 1520 53.2 L 1540 55.2 L 1560 56.1 L 1580 55.8 L 1600 54.1 L 1620 51.3 L 1640 47.5 L 1660 43.5 L 1680 39.5 L 1700 36.1 L 1720 33.7 L 1740 32.3 L 1760 32.0 L 1780 32.5 L 1800 33.5 L 1820 34.5 L 1840 35.0 L 1860 34.7 L 1880 33.3 L 1900 30.9 L 1920 27.5 L 1940 23.5 L 1960 19.5 L 1980 15.7 L 2000 12.9 L 2020 11.2 L 2040 10.9 L 2060 11.8 L 2080 13.8 L 2100 16.5 L 2120 19.4 L 2140 21.9 L 2160 23.8 L 2180 24.7 L 2200 24.7 L 2220 23.7 L 2240 22.3 L 2260 20.7 L 2280 19.5 L 2300 19.1 L 2320 19.8 L 2340 21.8 L 2360 24.9 L 2380 29.0 L 2400 33.5 L 2400 80 Z" fill="url(#waveGrad)" stroke="rgba(0, 212, 255, 0.14)" stroke-width="0.75" />
  <path class="wave7" d="M 0 80 L 0 35.0 L 20 39.6 L 40 44.1 L 60 48.2 L 80 51.8 L 100 54.7 L 120 56.9 L 140 58.4 L 160 58.9 L 180 58.6 L 200 57.4 L 220 55.5 L 240 52.9 L 260 49.8 L 280 46.2 L 300 42.4 L 320 38.5 L 340 34.7 L 360 31.2 L 380 28.0 L 400 25.4 L 420 23.4 L 440 22.1 L 460 21.6 L 480 21.8 L 500 22.7 L 520 24.3 L 540 26.4 L 560 29.0 L 580 31.9 L 600 35.0 L 620 38.1 L 640 41.0 L 660 43.6 L 680 45.7 L 700 47.3 L 720 48.2 L 740 48.4 L 760 47.9 L 780 46.6 L 800 44.6 L 820 42.0 L 840 38.8 L 860 35.3 L 880 31.5 L 900 27.6 L 920 23.8 L 940 20.2 L 960 17.1 L 980 14.5 L 1000 12.6 L 1020 11.4 L 1040 11.1 L 1060 11.6 L 1080 13.1 L 1100 15.3 L 1120 18.2 L 1140 21.8 L 1160 25.9 L 1180 30.4 L 1200 35.0 L 1220 39.6 L 1240 44.1 L 1260 48.2 L 1280 51.8 L 1300 54.7 L 1320 56.9 L 1340 58.4 L 1360 58.9 L 1380 58.6 L 1400 57.4 L 1420 55.5 L 1440 52.9 L 1460 49.8 L 1480 46.2 L 1500 42.4 L 1520 38.5 L 1540 34.7 L 1560 31.2 L 1580 28.0 L 1600 25.4 L 1620 23.4 L 1640 22.1 L 1660 21.6 L 1680 21.8 L 1700 22.7 L 1720 24.3 L 1740 26.4 L 1760 29.0 L 1780 31.9 L 1800 35.0 L 1820 38.1 L 1840 41.0 L 1860 43.6 L 1880 45.7 L 1900 47.3 L 1920 48.2 L 1940 48.4 L 1960 47.9 L 1980 46.6 L 2000 44.6 L 2020 42.0 L 2040 38.8 L 2060 35.3 L 2080 31.5 L 2100 27.6 L 2120 23.8 L 2140 20.2 L 2160 17.1 L 2180 14.5 L 2200 12.6 L 2220 11.4 L 2240 11.1 L 2260 11.6 L 2280 13.1 L 2300 15.3 L 2320 18.2 L 2340 21.8 L 2360 25.9 L 2380 30.4 L 2400 35.0 L 2400 80 Z" fill="url(#waveGrad)" stroke="rgba(0, 212, 255, 0.155)" stroke-width="0.75" />
  <path class="wave8" d="M 0 80 L 0 36.5 L 20 44.3 L 40 51.5 L 60 57.4 L 80 61.5 L 100 63.4 L 120 63.1 L 140 60.6 L 160 56.2 L 180 50.3 L 200 43.4 L 220 36.3 L 240 29.4 L 260 23.6 L 280 19.1 L 300 16.5 L 320 15.8 L 340 17.1 L 360 20.0 L 380 24.4 L 400 29.6 L 420 35.1 L 440 40.3 L 460 44.7 L 480 47.9 L 500 49.6 L 520 49.6 L 540 48.0 L 560 45.0 L 580 41.0 L 600 36.5 L 620 32.0 L 640 28.0 L 660 25.0 L 680 23.4 L 700 23.4 L 720 25.1 L 740 28.3 L 760 32.7 L 780 37.9 L 800 43.4 L 820 48.6 L 840 53.0 L 860 55.9 L 880 57.2 L 900 56.5 L 920 53.9 L 940 49.4 L 960 43.6 L 980 36.7 L 1000 29.6 L 1020 22.7 L 1040 16.8 L 1060 12.4 L 1080 9.9 L 1100 9.6 L 1120 11.5 L 1140 15.6 L 1160 21.5 L 1180 28.7 L 1200 36.5 L 1220 44.3 L 1240 51.5 L 1260 57.4 L 1280 61.5 L 1300 63.4 L 1320 63.1 L 1340 60.6 L 1360 56.2 L 1380 50.3 L 1400 43.4 L 1420 36.3 L 1440 29.4 L 1460 23.6 L 1480 19.1 L 1500 16.5 L 1520 15.8 L 1540 17.1 L 1560 20.0 L 1580 24.4 L 1600 29.6 L 1620 35.1 L 1640 40.3 L 1660 44.7 L 1680 47.9 L 1700 49.6 L 1720 49.6 L 1740 48.0 L 1760 45.0 L 1780 41.0 L 1800 36.5 L 1820 32.0 L 1840 28.0 L 1860 25.0 L 1880 23.4 L 1900 23.4 L 1920 25.1 L 1940 28.3 L 1960 32.7 L 1980 37.9 L 2000 43.4 L 2020 48.6 L 2040 53.0 L 2060 55.9 L 2080 57.2 L 2100 56.5 L 2120 53.9 L 2140 49.4 L 2160 43.6 L 2180 36.7 L 2200 29.6 L 2220 22.7 L 2240 16.8 L 2260 12.4 L 2280 9.9 L 2300 9.6 L 2320 11.5 L 2340 15.6 L 2360 21.5 L 2380 28.7 L 2400 36.5 L 2400 80 Z" fill="url(#waveGrad)" stroke="rgba(0, 212, 255, 0.16999999999999998)" stroke-width="0.75" />
  <path class="wave9" d="M 0 80 L 0 38.0 L 20 42.9 L 40 47.5 L 60 51.6 L 80 54.9 L 100 57.4 L 120 58.8 L 140 59.3 L 160 59.0 L 180 58.1 L 200 56.6 L 220 55.0 L 240 53.4 L 260 52.1 L 280 51.2 L 300 50.9 L 320 51.2 L 340 52.1 L 360 53.4 L 380 55.0 L 400 56.6 L 420 58.1 L 440 59.0 L 460 59.3 L 480 58.8 L 500 57.4 L 520 54.9 L 540 51.6 L 560 47.5 L 580 42.9 L 600 38.0 L 620 33.1 L 640 28.5 L 660 24.4 L 680 21.1 L 700 18.6 L 720 17.2 L 740 16.7 L 760 17.0 L 780 17.9 L 800 19.4 L 820 21.0 L 840 22.6 L 860 23.9 L 880 24.8 L 900 25.1 L 920 24.8 L 940 23.9 L 960 22.6 L 980 21.0 L 1000 19.4 L 1020 17.9 L 1040 17.0 L 1060 16.7 L 1080 17.2 L 1100 18.6 L 1120 21.1 L 1140 24.4 L 1160 28.5 L 1180 33.1 L 1200 38.0 L 1220 42.9 L 1240 47.5 L 1260 51.6 L 1280 54.9 L 1300 57.3 L 1320 58.8 L 1340 59.3 L 1360 59.0 L 1380 58.1 L 1400 56.6 L 1420 55.0 L 1440 53.4 L 1460 52.1 L 1480 51.2 L 1500 50.9 L 1520 51.2 L 1540 52.1 L 1560 53.4 L 1580 55.0 L 1600 56.6 L 1620 58.1 L 1640 59.0 L 1660 59.3 L 1680 58.8 L 1700 57.3 L 1720 54.9 L 1740 51.6 L 1760 47.5 L 1780 42.9 L 1800 38.0 L 1820 33.1 L 1840 28.5 L 1860 24.4 L 1880 21.1 L 1900 18.7 L 1920 17.2 L 1940 16.7 L 1960 17.0 L 1980 17.9 L 2000 19.4 L 2020 21.0 L 2040 22.6 L 2060 23.9 L 2080 24.8 L 2100 25.1 L 2120 24.8 L 2140 23.9 L 2160 22.6 L 2180 21.0 L 2200 19.4 L 2220 17.9 L 2240 17.0 L 2260 16.7 L 2280 17.2 L 2300 18.6 L 2320 21.1 L 2340 24.4 L 2360 28.5 L 2380 33.1 L 2400 38.0 L 2400 80 Z" fill="url(#waveGrad)" stroke="rgba(0, 212, 255, 0.185)" stroke-width="0.75" />

</g>
</svg>
