<svg xmlns="http://www.w3.org/2000/svg" viewBox="0 0 1200 120" width="100%" preserveAspectRatio="none">
<defs>
  <linearGradient id="oceanGrad" x1="0" y1="0" x2="0" y2="1">
    <stop offset="0%" stop-color="#00D4FF" stop-opacity="0.2"/>
    <stop offset="50%" stop-color="#0066FF" stop-opacity="0.1"/>
    <stop offset="100%" stop-color="#000000" stop-opacity="0.0"/>
  </linearGradient>
  
  <filter id="glow">
    <feGaussianBlur stdDeviation="3" result="blur"/>
    <feComposite in="SourceGraphic" in2="blur" operator="over"/>
  </filter>
</defs>

<style>
  @keyframes slide {
    from { transform: translateX(0); }
    to { transform: translateX(-1200px); }
  }
  .wave {
    animation: slide linear infinite;
  }
</style>

<g class="wave-group">
  <!-- Back slow wave -->
  <path class="wave" d="M -1200 120 L -1200 60.0 L -1150 70.2 L -1100 70.0 L -1050 69.1 L -1000 77.3 L -950 84.3 L -900 80.0 L -850 74.3 L -800 77.3 L -750 79.1 L -700 70.0 L -650 60.2 L -600 60.0 L -550 59.8 L -500 50.0 L -450 40.9 L -400 42.7 L -350 45.7 L -300 40.0 L -250 35.7 L -200 42.7 L -150 50.9 L -100 50.0 L -50 49.8 L 0 60.0 L 50 70.2 L 100 70.0 L 150 69.1 L 200 77.3 L 250 84.3 L 300 80.0 L 350 74.3 L 400 77.3 L 450 79.1 L 500 70.0 L 550 60.2 L 600 60.0 L 650 59.8 L 700 50.0 L 750 40.9 L 800 42.7 L 850 45.7 L 900 40.0 L 950 35.7 L 1000 42.7 L 1050 50.9 L 1100 50.0 L 1150 49.8 L 1200 60.0 L 1250 70.2 L 1300 70.0 L 1350 69.1 L 1400 77.3 L 1450 84.3 L 1500 80.0 L 1550 74.3 L 1600 77.3 L 1650 79.1 L 1700 70.0 L 1750 60.2 L 1800 60.0 L 1850 59.8 L 1900 50.0 L 1950 40.9 L 2000 42.7 L 2050 45.7 L 2100 40.0 L 2150 35.7 L 2200 42.7 L 2250 50.9 L 2300 50.0 L 2350 49.8 L 2400 60.0 L 2400 120 Z" fill="url(#oceanGrad)" stroke="#00D4FF" stroke-width="0.5" stroke-opacity="0.3" style="animation-duration: 25s;"/>
  
  <!-- Middle wave -->
  <path class="wave" d="M -1200 120 L -1200 83.8 L -1150 90.0 L -1100 83.8 L -1050 75.2 L -1000 74.7 L -950 72.7 L -900 60.0 L -850 47.3 L -800 45.3 L -750 44.8 L -700 36.2 L -650 30.0 L -600 36.2 L -550 44.8 L -500 45.3 L -450 47.3 L -400 60.0 L -350 72.7 L -300 74.7 L -250 75.2 L -200 83.8 L -150 90.0 L -100 83.8 L -50 75.2 L 0 74.7 L 50 72.7 L 100 60.0 L 150 47.3 L 200 45.3 L 250 44.8 L 300 36.2 L 350 30.0 L 400 36.2 L 450 44.8 L 500 45.3 L 550 47.3 L 600 60.0 L 650 72.7 L 700 74.7 L 750 75.2 L 800 83.8 L 850 90.0 L 900 83.8 L 950 75.2 L 1000 74.7 L 1050 72.7 L 1100 60.0 L 1150 47.3 L 1200 45.3 L 1250 44.8 L 1300 36.2 L 1350 30.0 L 1400 36.2 L 1450 44.8 L 1500 45.3 L 1550 47.3 L 1600 60.0 L 1650 72.7 L 1700 74.7 L 1750 75.2 L 1800 83.8 L 1850 90.0 L 1900 83.8 L 1950 75.2 L 2000 74.7 L 2050 72.7 L 2100 60.0 L 2150 47.3 L 2200 45.3 L 2250 44.8 L 2300 36.2 L 2350 30.0 L 2400 36.2 L 2400 120 Z" fill="url(#oceanGrad)" stroke="#00D4FF" stroke-width="1" stroke-opacity="0.5" style="animation-duration: 18s;"/>
  
  <!-- Front fast wave -->
  <path class="wave" d="M -1200 120 L -1200 60.0 L -1150 59.3 L -1100 49.4 L -1050 41.1 L -1000 45.0 L -950 51.1 L -900 49.4 L -850 49.3 L -800 60.0 L -750 70.7 L -700 70.6 L -650 68.9 L -600 75.0 L -550 78.9 L -500 70.6 L -450 60.7 L -400 60.0 L -350 59.3 L -300 49.4 L -250 41.1 L -200 45.0 L -150 51.1 L -100 49.4 L -50 49.3 L 0 60.0 L 50 70.7 L 100 70.6 L 150 68.9 L 200 75.0 L 250 78.9 L 300 70.6 L 350 60.7 L 400 60.0 L 450 59.3 L 500 49.4 L 550 41.1 L 600 45.0 L 650 51.1 L 700 49.4 L 750 49.3 L 800 60.0 L 850 70.7 L 900 70.6 L 950 68.9 L 1000 75.0 L 1050 78.9 L 1100 70.6 L 1150 60.7 L 1200 60.0 L 1250 59.3 L 1300 49.4 L 1350 41.1 L 1400 45.0 L 1450 51.1 L 1500 49.4 L 1550 49.3 L 1600 60.0 L 1650 70.7 L 1700 70.6 L 1750 68.9 L 1800 75.0 L 1850 78.9 L 1900 70.6 L 1950 60.7 L 2000 60.0 L 2050 59.3 L 2100 49.4 L 2150 41.1 L 2200 45.0 L 2250 51.1 L 2300 49.4 L 2350 49.3 L 2400 60.0 L 2400 120 Z" fill="url(#oceanGrad)" stroke="#00D4FF" stroke-width="1.5" filter="url(#glow)" style="animation-duration: 12s;"/>
</g>
</svg>
